<svg viewBox="0 0 412.21 425.94" xmlns="http://www.w3.org/2000/svg"><path d="m206.13 36.14c27.19 0 49.22-9.27 49.22-18.83s-22.03-17.31-49.22-17.31-49.21 7.75-49.21 17.31 22.08 18.83 49.21 18.83z" fill="#005789"/><g fill="#231f20"><path d="m6.38 388.14c0-6.84-.22-8.06-3.17-8.43l-2.3-.28a1.2 1.2 0 0 1 .07-1.8c4-.36 9-.58 16.06-.58 4.46 0 8.71.36 12 2.16a10.72 10.72 0 0 1 6 10.08c0 6.84-5.4 10.58-9 12-.36.43 0 1.15.36 1.72 5.76 9.29 9.57 15 14.47 19.16a8.56 8.56 0 0 0 5 2 .6.6 0 0 1 .07 1 11.08 11.08 0 0 1 -3.17.36c-6.12 0-9.79-1.8-14.9-9.07-1.87-2.67-4.83-7.64-7.06-10.87-1.08-1.59-2.23-2.31-5.11-2.31-3.24 0-3.38.08-3.38 1.59v9.13c0 7.56.14 8.42 4.32 9l1.51.21a1.41 1.41 0 0 1 -.15 1.79c-3.24-.14-5.68-.21-8.57-.21s-5.61.07-9 .21c-.43-.21-.57-1.29-.14-1.8l1.8-.21c4.18-.51 4.32-1.44 4.32-9zm5.91 10.3a5.81 5.81 0 0 0 .21 2.37c.22.22 1.3.36 5 .36 2.59 0 5.33-.28 7.42-1.87 1.94-1.51 3.6-4 3.6-8.93 0-5.69-3.53-11.08-11.52-11.08-4.47 0-4.68.28-4.68 2.3z"/><path d="m54.12 401.53c0-14.4 10.8-25.41 25.63-25.41 16.63 0 25 12 25 24.69 0 14.55-11.08 25.13-25 25.13-15.99 0-25.63-11.45-25.63-24.41zm43.41 1.47c0-11.88-5.25-24.69-19-24.69-7.48 0-17.2 5.11-17.2 20.88 0 10.66 5.18 24.48 19.36 24.48 8.63.04 16.84-6.44 16.84-20.67z"/><path d="m141.74 414c0 7.56.15 8.57 4.32 9l2.3.21c.44.29.29 1.59-.14 1.8-4.1-.14-6.55-.21-9.43-.21s-5.4.07-10 .21a1.26 1.26 0 0 1 0-1.8l2.59-.21c4.11-.36 4.47-1.44 4.47-9v-32.2c0-2.23 0-2.3-2.16-2.3h-4c-3.1 0-7.06.14-8.86 1.8a13.15 13.15 0 0 0 -3.24 5 1.39 1.39 0 0 1 -1.87-.5 77.35 77.35 0 0 0 2.77-10.8 1.74 1.74 0 0 1 1.36 0c.43 2.3 2.81 2.23 6.12 2.23h29.16c3.89 0 4.54-.15 5.62-2 .36-.14 1.15-.07 1.3.22a43 43 0 0 0 -1.05 10.96 1.36 1.36 0 0 1 -1.88.15c-.21-1.8-.72-4.47-1.8-5.26-1.65-1.22-4.39-1.8-8.35-1.8h-5.11c-2.16 0-2.09.07-2.09 2.45z"/><path d="m215.32 395.34c0-4.47-.14-12.74-1.36-14.9-.51-.87-1.8-1.37-3.6-1.51l-1.81-.15a1.32 1.32 0 0 1 .15-1.73c2.74.15 5.4.22 8.21.22 3 0 5-.07 7.56-.22a1.24 1.24 0 0 1 .14 1.73l-1.72.15c-1.8.14-3.25.78-3.6 1.72-1.08 2.38-1 10.66-1 14.69v8.14c0 6.26-1 12.88-5 17.2-3.1 3.39-8.43 5.26-13.76 5.26-5 0-9.93-.94-13.46-4-3.82-3.17-5.62-8.42-5.62-17v-16.94c0-7.49-.14-8.71-4.32-9.07l-1.8-.15c-.43-.29-.29-1.51.15-1.73 3.6.15 6 .22 8.93.22s5.32-.07 8.85-.22c.43.22.58 1.44.15 1.73l-1.73.15c-4.18.36-4.32 1.58-4.32 9.07v15.55c0 11.59 3.6 19.22 14.61 19.22 10.44 0 14.4-8.2 14.4-19.15z"/><path d="m284.23 412.55c0 2.16 0 10.73.22 12.6a1.31 1.31 0 0 1 -1.37.79c-.87-1.22-2.95-3.74-9.22-10.87l-16.7-19c-2-2.23-6.84-8.13-8.36-9.72h-.14a18.18 18.18 0 0 0 -.36 4.68v15.7c0 3.38.15 12.74 1.3 14.9.5.79 1.87 1.22 3.67 1.37l2.23.21a1.32 1.32 0 0 1 -.14 1.8c-3.24-.14-5.76-.21-8.43-.21-3 0-5 .07-7.48.21a1.33 1.33 0 0 1 -.15-1.8l1.94-.21c1.66-.15 2.81-.65 3.17-1.44 1-2.59.94-11.38.94-14.83v-20.82c0-2-.07-3.53-1.58-5.18a7.71 7.71 0 0 0 -4.47-1.73l-1.23-.15a1.26 1.26 0 0 1 .15-1.8c3 .22 6.84.22 8.14.22a22.41 22.41 0 0 0 3.31-.22c1.44 3.68 10 13.18 12.31 15.84l7 7.85c4.9 5.62 8.5 9.58 11.88 13h.14c.29-.36.29-1.51.29-3v-15.4c0-3.38-.08-12.74-1.44-14.9-.44-.65-1.59-1.08-4.47-1.44l-1.22-.15c-.51-.43-.44-1.58.14-1.8 3.32.15 5.76.22 8.5.22 3.09 0 5-.07 7.41-.22a1.26 1.26 0 0 1 .15 1.8l-1 .15c-2.3.36-3.74.93-4 1.51-1.22 2.59-1.08 11.52-1.08 14.83z"/><path d="m313 386.63c0-5-.37-6.55-3.39-7l-1.58-.21a1.07 1.07 0 0 1 .07-1.8c6.12-.36 11.95-.58 18.07-.58s11.16.43 15.84 2.16c9.72 3.53 14.62 11.74 14.62 21.24a23.61 23.61 0 0 1 -12.63 21.47c-4.68 2.52-10.59 3.45-16.13 3.45-4.61 0-9.22-.57-11.73-.57-3 0-5.62.07-9 .21a1.39 1.39 0 0 1 -.15-1.8l1.66-.21c4.17-.58 4.32-1.44 4.32-9zm5.9 25.7c0 3.82.21 6.12 1.44 7.85 1.58 2.23 4.32 2.95 8.86 2.95 14 0 20.23-9.14 20.23-22.53 0-7.92-3.82-21.31-22.68-21.31-4.25 0-6.55.57-7.13 1s-.72 2.23-.72 5.48z"/><path d="m395.25 408.09c-.5-1.59-.79-1.8-2.95-1.8h-10.87c-1.8 0-2.23.21-2.74 1.72l-2.52 7.56a27.45 27.45 0 0 0 -1.58 6c0 .86.36 1.29 2.09 1.44l2.37.21a1.16 1.16 0 0 1 -.14 1.8c-1.87-.14-4.11-.14-7.49-.21-2.38 0-5 .14-6.91.21a1.41 1.41 0 0 1 -.15-1.8l2.38-.21c1.73-.15 3.31-.94 4.32-3.53 1.3-3.31 3.31-8 6.33-16l7.35-19.48c1-2.59 1.44-4 1.22-5.11a8.13 8.13 0 0 0 3.75-2.73 1 1 0 0 1 1.08.65c.93 3.16 2.09 6.48 3.17 9.64l9.86 28.95c2.09 6.19 3 7.27 6.12 7.63l1.94.21a1.4 1.4 0 0 1 0 1.8c-2.95-.14-5.47-.21-8.71-.21-3.46 0-6.19.14-8.28.21a1.21 1.21 0 0 1 -.14-1.8l2.09-.21c1.51-.15 2.52-.58 2.52-1.3a14.64 14.64 0 0 0 -.94-3.81zm-14.25-6.41c-.58 1.65-.51 1.73 1.51 1.73h8.85c2.09 0 2.23-.29 1.59-2.24l-3.89-11.73a46.73 46.73 0 0 0 -1.66-4.54h-.14a42.2 42.2 0 0 0 -1.73 4.25z"/></g><g fill="#a7a9ac"><path d="m387 130.28c-1.58-28.78-20.41-55.67-53.06-75.86-2.69-1.66-5.5-3.24-8.36-4.78 1.32 1.58 2.6 3.18 3.81 4.8 1.11.65 2.24 1.28 3.33 2 29 18 46.86 41.23 51.06 66.22a65.44 65.44 0 0 1 .36 13.3c-3.27 24.08-19.2 46.68-45.58 64.6q-2.83 1.94-5.84 3.79a184.37 184.37 0 0 1 -20.71 11c-31.37 14.25-68.61 21.36-105.84 21.36-45.83 0-91.67-10.78-126.56-32.35-29.78-18.42-47.81-42.43-51.4-68.14a66.24 66.24 0 0 1 .43-14.29c4.36-24.65 22.05-47.47 50.7-64.93.93-.57 1.9-1.1 2.84-1.65q1.77-2.41 3.69-4.75c-2.63 1.4-5.23 2.9-7.74 4.4-32.57 19.87-51.35 46.6-52.87 75.28-1.66 31.09 17.74 61.47 53.07 83.34 69.88 43.2 183.19 43.54 253.78 1v.06l1.77-1.1.55-.34c35.02-21.83 54.17-52.04 52.57-82.96z"/><path d="m396.83 137.64c-1.51-31.61-21.37-61.18-55.95-83.37a177.42 177.42 0 0 0 -22.11-12c1.52 1.51 3 3.05 4.42 4.63a171.39 171.39 0 0 1 16.43 9.3c29.9 19.19 48.57 43.92 53.59 70.56a74.52 74.52 0 0 1 .51 18.63c-3.81 26-20.49 50.25-47.9 69.6q-3 2.13-6.2 4.17c-73.61 47.27-193.4 47.27-267 0-30.93-19.86-49.81-45.65-54-73.34a75.44 75.44 0 0 1 .56-19.8c5.16-26.2 23.82-50.45 53.4-69.13 4.83-3 9.92-5.88 15.21-8.54 1.38-1.59 2.81-3.16 4.3-4.69a187.29 187.29 0 0 0 -20.75 11.26c-34.62 21.84-54.49 51.21-56 82.72-1.6 34.38 18.27 66.64 56 90.85 73.73 47.34 193.31 47.69 267.75 1.09v.06l1.79-1.15.53-.35c37.33-24.14 57.02-56.28 55.42-90.5z"/><path d="m405.41 145c-1.41-34.38-22.21-66.57-58.41-90.73a189.28 189.28 0 0 0 -35-18.2c1.8 1.54 3.53 3.11 5.21 4.72a182.73 182.73 0 0 1 28.46 15.41c22.48 15 38.87 33.09 48.28 52.83 4.63 11.11 10.19 28.53 7.75 48.3-4.91 26.85-22.08 51.91-49.53 72q-3.17 2.32-6.5 4.55a203 203 0 0 1 -30.94 16.84c-32.81 14.46-70.73 21.68-108.63 21.68-50.54 0-101.09-12.83-139.56-38.49-31.1-20.74-50.58-47.42-56-76.18-2.47-19.2 2.64-36.23 7.19-47.45 9.31-20 25.87-38.26 48.77-53.21a198.57 198.57 0 0 1 26.61-14.46c1.61-1.61 3.29-3.17 5-4.71a203.8 203.8 0 0 0 -32.85 17.22c-36.26 23.69-57.04 55.61-58.47 89.88-1.54 37.16 19.21 72 58.46 98.2 77.07 51.39 202.09 51.76 279.9 1.14v.06l2.32-1.55c38.9-26.14 59.53-60.85 57.94-97.85z"/><path d="m376.75 124.14c-1.55-24.74-17.21-47.7-44.27-65.27q1.6 2.4 3.06 4.89c21.47 15.12 34.7 33.85 38.11 53.94a54.86 54.86 0 0 1 .46 9.83 66.15 66.15 0 0 1 -9 25.93l-.09.16c-.77 1.3-1.6 2.59-2.46 3.87l-.3.43c-.82 1.19-1.67 2.37-2.57 3.54l-.55.71c-.84 1.08-1.71 2.16-2.62 3.22l-.86 1c-.85 1-1.72 1.94-2.63 2.9l-1.19 1.21c-.85.87-1.71 1.73-2.61 2.59-.51.48-1.05 1-1.57 1.44-.84.77-1.68 1.54-2.55 2.29-.65.56-1.33 1.1-2 1.65s-1.6 1.34-2.43 2-1.67 1.26-2.5 1.88-1.49 1.12-2.25 1.67c-1 .74-2.11 1.45-3.18 2.17-.63.43-1.24.86-1.88 1.28q-2.61 1.69-5.36 3.33c-65.81 39.08-172.9 39.08-238.71 0-1.83-1.08-3.6-2.19-5.34-3.31-.59-.39-1.16-.8-1.75-1.19-1.1-.75-2.22-1.49-3.29-2.25-.69-.5-1.35-1-2-1.51-.91-.68-1.83-1.35-2.72-2-.71-.56-1.38-1.13-2.08-1.69s-1.6-1.31-2.37-2-1.37-1.22-2-1.83-1.42-1.27-2.1-1.92-1.34-1.31-2-2-1.24-1.25-1.84-1.87-1.29-1.4-1.92-2.1-1.09-1.22-1.62-1.84-1.23-1.47-1.82-2.21-.94-1.19-1.4-1.79q-.89-1.17-1.71-2.34-.62-.87-1.2-1.74-.82-1.23-1.59-2.46c-.34-.56-.67-1.12-1-1.68-.5-.86-1-1.72-1.46-2.59-.28-.53-.54-1.06-.81-1.59-.46-.91-.9-1.82-1.31-2.74-.22-.49-.43-1-.64-1.49-.4-1-.8-1.93-1.15-2.89-.17-.45-.31-.9-.47-1.35-.35-1-.69-2.05-1-3.09-.11-.37-.2-.76-.3-1.13-.3-1.11-.58-2.22-.82-3.34 0-.26-.09-.53-.14-.79-.24-1.23-.47-2.48-.63-3.72a56.24 56.24 0 0 1 .51-11.59 1.38 1.38 0 0 0 0-.2c0-.3.11-.57.16-.87 3.91-19.28 17-37.29 37.8-51.93 1-1.65 2-3.28 3.06-4.88-27.21 17.58-42.85 40.59-44.39 65.26-1.73 28.35 16.53 56 50.1 76 65.89 39.13 172.73 39.44 239.33 1v.05l1.76-1 .56-.34c33.2-20 51.26-47.53 49.54-75.71z"/><path d="m366.11 116.78c-1.33-17.73-11.11-34.43-28.11-48.45.88 1.71 1.7 3.46 2.47 5.22 12 11 19.62 23.45 22.31 36.56a41.88 41.88 0 0 1 .19 12.5c-1.88 10-6.73 19.67-14.26 28.65a1.56 1.56 0 0 0 -.16.2c-.81.95-1.66 1.9-2.53 2.83-.23.25-.45.5-.68.74q-1.17 1.23-2.4 2.43l-1.11 1.08c-.75.72-1.52 1.42-2.31 2.12-.49.45-1 .88-1.51 1.32-.73.63-1.46 1.25-2.22 1.87s-1.26 1-1.91 1.5-1.4 1.1-2.12 1.64-1.54 1.11-2.33 1.66-1.32.95-2 1.41c-.94.64-1.92 1.27-2.89 1.89-.58.37-1.13.74-1.72 1.1-1.58 1-3.2 2-4.88 2.91q-5.77 3.27-12 6.15c-62.07 28.7-153.89 26.65-211.72-6.15q-2.51-1.43-4.87-2.9c-.58-.36-1.13-.72-1.69-1.09-1-.63-2-1.26-2.92-1.9-.67-.46-1.31-.92-2-1.38s-1.6-1.13-2.38-1.7-1.37-1.05-2-1.58-1.35-1-2-1.58-1.4-1.16-2.09-1.75-1.13-1-1.68-1.47c-.71-.63-1.41-1.28-2.1-1.92l-1.37-1.33c-.72-.71-1.43-1.43-2.11-2.15-.36-.37-.7-.75-1-1.12-.74-.8-1.46-1.6-2.15-2.41l-.64-.78c-.78-.94-1.55-1.88-2.27-2.83a61.17 61.17 0 0 1 -11.67-25.28 42.22 42.22 0 0 1 .25-13.14c2.75-12.9 10.33-25.21 22.22-36.09.77-1.77 1.6-3.5 2.48-5.22-17 14.06-26.83 30.79-28.1 48.46-1.83 25.58 15.31 50.56 47 68.55 61.75 35 161.84 35.33 224.29.94l1.73-1 .59-.33c31.26-17.96 48.19-42.76 46.37-68.18z"/><path d="m355.18 109.41c-.86-9.69-4.84-19-11.58-27.73q1 3.21 1.8 6.5a50 50 0 0 1 6.57 15.62 36 36 0 0 1 .03 11.2c-2.13 9.7-7.6 19-16.05 27.57l-.39.4c-.75.75-1.54 1.49-2.34 2.23l-.91.84-2.19 1.89-1.37 1.07c-.68.55-1.36 1.1-2.07 1.64s-1.16.87-1.75 1.3-1.29 1-1.95 1.42-1.44 1-2.16 1.47-1.2.81-1.82 1.21c-.89.57-1.8 1.12-2.72 1.68-.51.31-1 .63-1.53.93-1.46.86-2.95 1.71-4.49 2.53-57.43 30.93-150.88 30.93-208.31 0-1.54-.82-3-1.67-4.49-2.53-.51-.29-1-.6-1.48-.9-.93-.57-1.86-1.13-2.76-1.71-.6-.38-1.17-.77-1.75-1.16q-1.14-.75-2.25-1.53c-.62-.43-1.22-.88-1.82-1.32s-1.29-.95-1.92-1.43-1.24-1-1.85-1.46l-1.63-1.33c-.63-.54-1.26-1.08-1.86-1.62s-.89-.8-1.33-1.21c-.65-.6-1.29-1.2-1.91-1.81-.33-.33-.64-.66-1-1-.68-.69-1.36-1.39-2-2.09-.16-.17-.3-.35-.46-.52a59 59 0 0 1 -11.25-17.91.43.43 0 0 1 0 0c-.4-1-.76-2.08-1.08-3.13v-.1c-.32-1-.6-2.11-.84-3.17a36.28 36.28 0 0 1 .07-11.84 49.72 49.72 0 0 1 6.51-15.24q.77-3.28 1.79-6.48c-6.78 8.66-10.78 18.04-11.64 27.72-1.94 22.84 14 45.14 43.82 61.18 57.48 31 150.63 31.21 208.8.83v.09l1.71-.92.61-.33c29.42-16.03 45.17-38.17 43.24-60.85z"/></g></svg>